<svg width="139" height="101" viewBox="0 0 139 101" fill="none" xmlns="http://www.w3.org/2000/svg">
<g clip-path="url(#clip0_3_15)">
<path d="M2.5 20.5C2.5 11.3873 9.8873 4 19 4H106C115.113 4 122.5 11.3873 122.5 20.5V20.5C122.5 29.6127 115.113 37 106 37H19C9.8873 37 2.5 29.6127 2.5 20.5V20.5Z" fill="#40C351"/>
<path d="M17.5 1.25H104.5C113.475 1.25 120.75 8.52537 120.75 17.5C120.75 26.4746 113.475 33.75 104.5 33.75H17.5C8.52537 33.75 1.25 26.4746 1.25 17.5C1.25 8.52537 8.52537 1.25 17.5 1.25Z" fill="white" stroke="black" stroke-width="0.5"/>
<path d="M23.67 22.18C22.66 22.18 21.785 21.955 21.045 21.505C20.305 21.045 19.735 20.41 19.335 19.6C18.935 18.78 18.735 17.83 18.735 16.75C18.735 15.67 18.935 14.725 19.335 13.915C19.735 13.095 20.305 12.46 21.045 12.01C21.795 11.55 22.67 11.32 23.67 11.32C24.85 11.32 25.805 11.6 26.535 12.16C27.275 12.71 27.75 13.49 27.96 14.5H26.805C26.645 13.82 26.305 13.275 25.785 12.865C25.265 12.445 24.56 12.235 23.67 12.235C22.9 12.235 22.225 12.415 21.645 12.775C21.065 13.135 20.615 13.655 20.295 14.335C19.975 15.005 19.815 15.81 19.815 16.75C19.815 17.69 19.975 18.5 20.295 19.18C20.615 19.85 21.065 20.365 21.645 20.725C22.225 21.085 22.9 21.265 23.67 21.265C24.56 21.265 25.26 21.06 25.77 20.65C26.29 20.24 26.635 19.7 26.805 19.03H27.96C27.74 20.02 27.265 20.795 26.535 21.355C25.815 21.905 24.86 22.18 23.67 22.18ZM29.7584 22V11.2H30.8084V15.79C31.0684 15.31 31.4284 14.935 31.8884 14.665C32.3484 14.395 32.8534 14.26 33.4034 14.26C33.9734 14.26 34.4684 14.375 34.8884 14.605C35.3184 14.835 35.6484 15.185 35.8784 15.655C36.1184 16.125 36.2384 16.725 36.2384 17.455V22H35.2034V17.575C35.2034 16.765 35.0334 16.165 34.6934 15.775C34.3634 15.375 33.8734 15.175 33.2234 15.175C32.7734 15.175 32.3634 15.285 31.9934 15.505C31.6334 15.725 31.3434 16.045 31.1234 16.465C30.9134 16.875 30.8084 17.385 30.8084 17.995V22H29.7584ZM40.6402 22.18C40.0302 22.18 39.5202 22.07 39.1102 21.85C38.7102 21.63 38.4102 21.345 38.2102 20.995C38.0202 20.645 37.9252 20.26 37.9252 19.84C37.9252 19.32 38.0552 18.88 38.3152 18.52C38.5852 18.16 38.9602 17.89 39.4402 17.71C39.9202 17.53 40.4802 17.44 41.1202 17.44H43.1602C43.1602 16.95 43.0852 16.535 42.9352 16.195C42.7852 15.855 42.5652 15.6 42.2752 15.43C41.9852 15.25 41.6202 15.16 41.1802 15.16C40.6702 15.16 40.2302 15.29 39.8602 15.55C39.4902 15.81 39.2602 16.19 39.1702 16.69H38.0752C38.1352 16.16 38.3152 15.715 38.6152 15.355C38.9252 14.995 39.3052 14.725 39.7552 14.545C40.2052 14.355 40.6802 14.26 41.1802 14.26C41.8802 14.26 42.4502 14.395 42.8902 14.665C43.3302 14.925 43.6602 15.285 43.8802 15.745C44.1002 16.205 44.2102 16.735 44.2102 17.335V22H43.2502L43.1902 20.62C43.1002 20.83 42.9752 21.03 42.8152 21.22C42.6652 21.41 42.4852 21.575 42.2752 21.715C42.0752 21.855 41.8402 21.965 41.5702 22.045C41.3002 22.135 40.9902 22.18 40.6402 22.18ZM40.7602 21.265C41.1302 21.265 41.4602 21.19 41.7502 21.04C42.0502 20.88 42.3052 20.675 42.5152 20.425C42.7252 20.175 42.8852 19.895 42.9952 19.585C43.1052 19.265 43.1602 18.935 43.1602 18.595V18.325H41.1952C40.6652 18.325 40.2402 18.39 39.9202 18.52C39.6002 18.65 39.3702 18.825 39.2302 19.045C39.0902 19.265 39.0202 19.52 39.0202 19.81C39.0202 20.1 39.0852 20.355 39.2152 20.575C39.3452 20.785 39.5402 20.955 39.8002 21.085C40.0702 21.205 40.3902 21.265 40.7602 21.265ZM48.8245 22C48.3945 22 48.0245 21.935 47.7145 21.805C47.4045 21.665 47.1645 21.44 46.9945 21.13C46.8345 20.81 46.7545 20.375 46.7545 19.825V15.34H45.4345V14.44H46.7545L46.9045 12.685H47.8045V14.455H50.0695V15.34H47.8045V19.825C47.8045 20.325 47.9045 20.665 48.1045 20.845C48.3045 21.015 48.6595 21.1 49.1695 21.1H49.9495V22H48.8245ZM57.3926 22L55.1726 14.44H56.2376L58.0376 20.905H57.8276L59.7776 14.44H60.9776L62.9276 20.905H62.7176L64.5176 14.44H65.5826L63.3626 22H62.2976L60.2726 15.235H60.4826L58.4576 22H57.3926ZM67.2033 22V14.44H68.2383V22H67.2033ZM67.7283 12.655C67.5183 12.655 67.3383 12.585 67.1883 12.445C67.0383 12.295 66.9633 12.11 66.9633 11.89C66.9633 11.66 67.0333 11.48 67.1733 11.35C67.3233 11.21 67.5033 11.14 67.7133 11.14C67.9233 11.14 68.1033 11.21 68.2533 11.35C68.4033 11.48 68.4783 11.66 68.4783 11.89C68.4783 12.11 68.4033 12.295 68.2533 12.445C68.1133 12.585 67.9383 12.655 67.7283 12.655ZM73.39 22C72.96 22 72.59 21.935 72.28 21.805C71.97 21.665 71.73 21.44 71.56 21.13C71.4 20.81 71.32 20.375 71.32 19.825V15.34H70V14.44H71.32L71.47 12.685H72.37V14.455H74.635V15.34H72.37V19.825C72.37 20.325 72.47 20.665 72.67 20.845C72.87 21.015 73.225 21.1 73.735 21.1H74.515V22H73.39ZM76.2671 22V11.2H77.3171V15.79C77.5771 15.31 77.9371 14.935 78.3971 14.665C78.8571 14.395 79.3621 14.26 79.9121 14.26C80.4821 14.26 80.9771 14.375 81.3971 14.605C81.8271 14.835 82.1571 15.185 82.3871 15.655C82.6271 16.125 82.7471 16.725 82.7471 17.455V22H81.7121V17.575C81.7121 16.765 81.5421 16.165 81.2021 15.775C80.8721 15.375 80.3821 15.175 79.7321 15.175C79.2821 15.175 78.8721 15.285 78.5021 15.505C78.1421 15.725 77.8521 16.045 77.6321 16.465C77.4221 16.875 77.3171 17.385 77.3171 17.995V22H76.2671ZM91.5948 22.18C91.0248 22.18 90.5198 22.07 90.0798 21.85C89.6498 21.62 89.3148 21.275 89.0748 20.815C88.8348 20.345 88.7148 19.745 88.7148 19.015V14.44H89.7648V18.895C89.7648 19.695 89.9398 20.29 90.2898 20.68C90.6498 21.07 91.1448 21.265 91.7748 21.265C92.2248 21.265 92.6248 21.16 92.9748 20.95C93.3348 20.74 93.6148 20.43 93.8148 20.02C94.0248 19.6 94.1298 19.09 94.1298 18.49V14.44H95.1798V22H94.2198L94.1598 20.65C93.9198 21.14 93.5698 21.52 93.1098 21.79C92.6598 22.05 92.1548 22.18 91.5948 22.18ZM100.092 22.18C99.492 22.18 98.962 22.08 98.502 21.88C98.052 21.68 97.687 21.395 97.407 21.025C97.137 20.645 96.972 20.195 96.912 19.675H97.992C98.052 19.965 98.167 20.23 98.337 20.47C98.517 20.71 98.757 20.905 99.057 21.055C99.357 21.195 99.712 21.265 100.122 21.265C100.502 21.265 100.812 21.21 101.052 21.1C101.302 20.98 101.487 20.825 101.607 20.635C101.737 20.435 101.802 20.215 101.802 19.975C101.802 19.645 101.722 19.39 101.562 19.21C101.412 19.02 101.192 18.88 100.902 18.79C100.612 18.7 100.262 18.615 99.852 18.535C99.512 18.475 99.187 18.395 98.877 18.295C98.567 18.195 98.287 18.065 98.037 17.905C97.797 17.745 97.607 17.545 97.467 17.305C97.327 17.055 97.257 16.765 97.257 16.435C97.257 16.005 97.362 15.63 97.572 15.31C97.792 14.98 98.102 14.725 98.502 14.545C98.902 14.355 99.372 14.26 99.912 14.26C100.682 14.26 101.312 14.455 101.802 14.845C102.292 15.225 102.577 15.785 102.657 16.525H101.607C101.567 16.115 101.397 15.79 101.097 15.55C100.797 15.31 100.392 15.19 99.882 15.19C99.382 15.19 98.997 15.295 98.727 15.505C98.467 15.705 98.337 15.98 98.337 16.33C98.337 16.55 98.407 16.74 98.547 16.9C98.687 17.06 98.892 17.2 99.162 17.32C99.442 17.43 99.782 17.525 100.182 17.605C100.662 17.695 101.102 17.815 101.502 17.965C101.912 18.105 102.242 18.325 102.492 18.625C102.752 18.915 102.882 19.33 102.882 19.87C102.892 20.32 102.782 20.72 102.552 21.07C102.322 21.42 101.997 21.695 101.577 21.895C101.157 22.085 100.662 22.18 100.092 22.18Z" fill="black"/>
<path d="M83.3959 97.5843L87.155 83.6752C84.8359 79.605 83.6164 74.986 83.6178 70.2553C83.6248 55.4552 95.5075 43.4143 110.111 43.4143C117.198 43.4171 123.848 46.2131 128.851 51.286C133.852 56.3603 136.606 63.1035 136.603 70.2766C136.598 85.0767 124.712 97.1191 110.111 97.1191H110.1C105.667 97.1176 101.309 95.9905 97.4401 93.8507L83.3959 97.5843Z" fill="white"/>
<path d="M83.3959 98.2915C83.2117 98.2915 83.0331 98.2179 82.9006 98.0821C82.7261 97.9025 82.6578 97.6409 82.7234 97.3991L86.4057 83.7713C84.1229 79.6615 82.9187 74.9945 82.9215 70.2567C82.9271 55.0649 95.1238 42.7071 110.111 42.7071C117.381 42.71 124.211 45.5795 129.345 50.7867C134.478 55.9954 137.304 62.9168 137.301 70.2765C137.295 85.467 125.097 97.8262 110.111 97.8262C105.661 97.8247 101.259 96.7117 97.3522 94.6059L83.5731 98.2674C83.5145 98.2844 83.4559 98.2915 83.3959 98.2915Z" fill="white"/>
<path d="M110.111 43.4143C117.198 43.4171 123.848 46.2131 128.851 51.286C133.852 56.3603 136.606 63.1035 136.603 70.2765C136.598 85.0767 124.712 97.119 110.111 97.119H110.1C105.667 97.1176 101.309 95.9905 97.4401 93.8507L83.3959 97.5843L87.155 83.6752C84.8359 79.605 83.6164 74.986 83.6178 70.2553C83.6248 55.4552 95.5075 43.4143 110.111 43.4143ZM110.111 42C94.7401 42 82.2294 54.6745 82.2224 70.2553C82.221 75.0171 83.4071 79.7096 85.6564 83.8633L82.0494 97.2124C81.9182 97.7003 82.0522 98.2207 82.4038 98.58C82.6689 98.8515 83.0275 99 83.3959 99C83.5145 99 83.6331 98.9844 83.7503 98.9533L97.2671 95.3611C101.213 97.4373 105.636 98.5333 110.1 98.5347C125.482 98.5347 137.993 85.8588 138 70.278C138.003 62.7273 135.105 55.6277 129.84 50.2875C124.573 44.9459 117.567 42.0028 110.111 42Z" fill="#CFD8DC"/>
<path d="M125.686 54.4907C121.528 50.2734 116.001 47.9498 110.118 47.9483C97.9731 47.9483 88.0954 57.9556 88.0898 70.2568C88.0884 74.4726 89.2522 78.5768 91.4568 82.1308L91.9815 82.9751L89.7559 91.2075L98.0903 88.9928L98.8954 89.4764C102.275 91.5101 106.151 92.585 110.103 92.5864H110.111C122.248 92.5864 132.126 82.5777 132.13 70.2751C132.131 64.3141 129.844 58.708 125.686 54.4907Z" fill="#40C351"/>
<path fill-rule="evenodd" clip-rule="evenodd" d="M103.489 59.0347C102.994 57.9174 102.472 57.8948 101.999 57.875C101.612 57.858 101.171 57.8594 100.73 57.8594C100.289 57.8594 99.5722 58.0277 98.9652 58.6995C98.3582 59.3713 96.6475 60.9934 96.6475 64.2943C96.6475 67.5951 99.0196 70.7857 99.3503 71.2326C99.681 71.6795 103.93 78.6701 110.658 81.36C116.249 83.5946 117.388 83.1505 118.602 83.0388C119.816 82.927 122.519 81.4166 123.07 79.8496C123.621 78.2826 123.621 76.9405 123.456 76.6605C123.29 76.3805 122.849 76.2136 122.188 75.877C121.527 75.5404 118.271 73.9182 117.664 73.6948C117.057 73.4713 116.616 73.3596 116.174 74.0314C115.733 74.7017 114.465 76.2136 114.078 76.6605C113.692 77.1088 113.305 77.1654 112.644 76.8288C111.982 76.4922 109.85 75.7851 107.321 73.4996C105.353 71.7219 104.025 69.5256 103.638 68.8538C103.252 68.1835 103.596 67.82 103.928 67.4848C104.226 67.1836 104.59 66.7013 104.922 66.3096C105.253 65.9178 105.363 65.6378 105.583 65.1909C105.804 64.7426 105.694 64.3508 105.528 64.0157C105.364 63.6791 104.078 60.3612 103.489 59.0347Z" fill="white"/>
</g>
<defs>
<clipPath id="clip0_3_15">
<rect width="139" height="101" fill="white"/>
</clipPath>
</defs>
</svg>
