<svg width="182" height="130" viewBox="0 0 182 130" fill="none" xmlns="http://www.w3.org/2000/svg">
<g clip-path="url(#clip0_3_15)">
<path d="M3.5 21.5C3.5 12.3873 10.8873 5 20 5H107C116.113 5 123.5 12.3873 123.5 21.5V21.5C123.5 30.6127 116.113 38 107 38H20C10.8873 38 3.5 30.6127 3.5 21.5V21.5Z" fill="#40C351"/>
<path d="M18.5 2.25H105.5C114.475 2.25 121.75 9.52537 121.75 18.5C121.75 27.4746 114.475 34.75 105.5 34.75H18.5C9.52537 34.75 2.25 27.4746 2.25 18.5C2.25 9.52537 9.52537 2.25 18.5 2.25Z" fill="#D9D9D9" stroke="black" stroke-width="0.5"/>
<path d="M24.58 23.18C23.59 23.18 22.73 22.955 22 22.505C21.28 22.045 20.72 21.41 20.32 20.6C19.93 19.78 19.735 18.83 19.735 17.75C19.735 16.67 19.93 15.725 20.32 14.915C20.72 14.095 21.28 13.46 22 13.01C22.73 12.55 23.59 12.32 24.58 12.32C25.77 12.32 26.735 12.605 27.475 13.175C28.215 13.745 28.69 14.55 28.9 15.59H27.535C27.365 14.94 27.035 14.42 26.545 14.03C26.065 13.63 25.41 13.43 24.58 13.43C23.86 13.43 23.23 13.605 22.69 13.955C22.16 14.295 21.75 14.79 21.46 15.44C21.17 16.08 21.025 16.85 21.025 17.75C21.025 18.65 21.17 19.425 21.46 20.075C21.75 20.715 22.16 21.21 22.69 21.56C23.23 21.9 23.86 22.07 24.58 22.07C25.41 22.07 26.065 21.88 26.545 21.5C27.035 21.11 27.365 20.595 27.535 19.955H28.9C28.69 20.965 28.215 21.755 27.475 22.325C26.735 22.895 25.77 23.18 24.58 23.18ZM30.6998 23V12.2H31.9598V16.385C32.2198 15.935 32.5748 15.58 33.0248 15.32C33.4748 15.06 33.9598 14.93 34.4798 14.93C35.0898 14.93 35.6048 15.045 36.0248 15.275C36.4548 15.495 36.7798 15.835 36.9998 16.295C37.2298 16.755 37.3448 17.34 37.3448 18.05V23H36.0998V18.185C36.0998 17.465 35.9298 16.925 35.5898 16.565C35.2498 16.195 34.7898 16.01 34.2098 16.01C33.7998 16.01 33.4248 16.11 33.0848 16.31C32.7448 16.5 32.4698 16.785 32.2598 17.165C32.0598 17.545 31.9598 18.005 31.9598 18.545V23H30.6998ZM41.8902 23.18C41.2902 23.18 40.7902 23.07 40.3902 22.85C39.9902 22.62 39.6902 22.32 39.4902 21.95C39.2902 21.57 39.1902 21.165 39.1902 20.735C39.1902 20.215 39.3202 19.775 39.5802 19.415C39.8502 19.045 40.2252 18.765 40.7052 18.575C41.1852 18.385 41.7452 18.29 42.3852 18.29H44.3502C44.3502 17.78 44.2902 17.355 44.1702 17.015C44.0502 16.675 43.8552 16.42 43.5852 16.25C43.3152 16.08 42.9552 15.995 42.5052 15.995C42.0552 15.995 41.6702 16.11 41.3502 16.34C41.0302 16.56 40.8302 16.89 40.7502 17.33H39.4602C39.5202 16.81 39.6952 16.375 39.9852 16.025C40.2752 15.665 40.6402 15.395 41.0802 15.215C41.5302 15.025 42.0052 14.93 42.5052 14.93C43.2152 14.93 43.8002 15.06 44.2602 15.32C44.7202 15.57 45.0602 15.925 45.2802 16.385C45.5002 16.835 45.6102 17.37 45.6102 17.99V23H44.4852L44.4102 21.65C44.3102 21.86 44.1802 22.06 44.0202 22.25C43.8702 22.43 43.6902 22.59 43.4802 22.73C43.2702 22.87 43.0302 22.98 42.7602 23.06C42.5002 23.14 42.2102 23.18 41.8902 23.18ZM42.0702 22.115C42.4002 22.115 42.7052 22.04 42.9852 21.89C43.2652 21.74 43.5052 21.54 43.7052 21.29C43.9152 21.03 44.0752 20.74 44.1852 20.42C44.2952 20.1 44.3502 19.765 44.3502 19.415V19.265H42.4902C42.0202 19.265 41.6352 19.325 41.3352 19.445C41.0452 19.565 40.8352 19.735 40.7052 19.955C40.5752 20.165 40.5102 20.405 40.5102 20.675C40.5102 20.965 40.5702 21.22 40.6902 21.44C40.8102 21.65 40.9852 21.815 41.2152 21.935C41.4552 22.055 41.7402 22.115 42.0702 22.115ZM50.5469 23C50.0969 23 49.7069 22.93 49.3769 22.79C49.0469 22.65 48.7919 22.415 48.6119 22.085C48.4419 21.745 48.3569 21.29 48.3569 20.72V16.175H46.9769V15.11H48.3569L48.5219 13.145H49.6169V15.11H51.8519V16.175H49.6169V20.72C49.6169 21.19 49.7119 21.51 49.9019 21.68C50.0919 21.84 50.4269 21.92 50.9069 21.92H51.8219V23H50.5469ZM59.2439 23L56.9189 15.11H58.1789L59.9039 21.395L61.7339 15.11H63.1589L65.0039 21.38L66.7139 15.11H67.9889L65.6639 23H64.3739L62.4539 16.43L60.5339 23H59.2439ZM69.5502 23V15.11H70.8102V23H69.5502ZM70.1802 13.61C69.9302 13.61 69.7202 13.53 69.5502 13.37C69.3902 13.2 69.3102 12.99 69.3102 12.74C69.3102 12.49 69.3902 12.29 69.5502 12.14C69.7202 11.98 69.9302 11.9 70.1802 11.9C70.4202 11.9 70.6252 11.98 70.7952 12.14C70.9652 12.29 71.0502 12.49 71.0502 12.74C71.0502 12.99 70.9652 13.2 70.7952 13.37C70.6252 13.53 70.4202 13.61 70.1802 13.61ZM76.1084 23C75.6584 23 75.2684 22.93 74.9384 22.79C74.6084 22.65 74.3534 22.415 74.1734 22.085C74.0034 21.745 73.9184 21.29 73.9184 20.72V16.175H72.5384V15.11H73.9184L74.0834 13.145H75.1784V15.11H77.4134V16.175H75.1784V20.72C75.1784 21.19 75.2734 21.51 75.4634 21.68C75.6534 21.84 75.9884 21.92 76.4684 21.92H77.3834V23H76.1084ZM79.1421 23V12.2H80.4021V16.385C80.6621 15.935 81.0171 15.58 81.4671 15.32C81.9171 15.06 82.4021 14.93 82.9221 14.93C83.5321 14.93 84.0471 15.045 84.4671 15.275C84.8971 15.495 85.2221 15.835 85.4421 16.295C85.6721 16.755 85.7871 17.34 85.7871 18.05V23H84.5421V18.185C84.5421 17.465 84.3721 16.925 84.0321 16.565C83.6921 16.195 83.2321 16.01 82.6521 16.01C82.2421 16.01 81.8671 16.11 81.5271 16.31C81.1871 16.5 80.9121 16.785 80.7021 17.165C80.5021 17.545 80.4021 18.005 80.4021 18.545V23H79.1421ZM94.7359 23.18C94.1559 23.18 93.6509 23.07 93.2209 22.85C92.7909 22.63 92.4559 22.295 92.2159 21.845C91.9759 21.385 91.8559 20.815 91.8559 20.135V15.11H93.1159V20C93.1159 20.7 93.2859 21.225 93.6259 21.575C93.9759 21.925 94.4409 22.1 95.0209 22.1C95.4209 22.1 95.7809 22.01 96.1009 21.83C96.4209 21.64 96.6759 21.365 96.8659 21.005C97.0659 20.645 97.1659 20.205 97.1659 19.685V15.11H98.4259V23H97.2859L97.2109 21.74C97.0009 22.2 96.6759 22.555 96.2359 22.805C95.8059 23.055 95.3059 23.18 94.7359 23.18ZM103.408 23.18C102.698 23.18 102.108 23.075 101.638 22.865C101.178 22.645 100.828 22.345 100.588 21.965C100.348 21.575 100.203 21.125 100.153 20.615H101.443C101.483 20.885 101.573 21.135 101.713 21.365C101.863 21.585 102.078 21.765 102.358 21.905C102.638 22.045 102.993 22.115 103.423 22.115C103.763 22.115 104.053 22.065 104.293 21.965C104.533 21.855 104.713 21.705 104.833 21.515C104.963 21.325 105.028 21.105 105.028 20.855C105.028 20.525 104.953 20.27 104.803 20.09C104.663 19.9 104.453 19.76 104.173 19.67C103.903 19.57 103.563 19.495 103.153 19.445C102.713 19.385 102.323 19.3 101.983 19.19C101.643 19.08 101.353 18.935 101.113 18.755C100.883 18.575 100.708 18.35 100.588 18.08C100.468 17.81 100.408 17.49 100.408 17.12C100.408 16.69 100.523 16.31 100.753 15.98C100.983 15.65 101.308 15.395 101.728 15.215C102.158 15.025 102.663 14.93 103.243 14.93C104.093 14.93 104.763 15.125 105.253 15.515C105.753 15.905 106.048 16.46 106.138 17.18H104.893C104.843 16.81 104.673 16.52 104.383 16.31C104.093 16.1 103.708 15.995 103.228 15.995C102.718 15.995 102.333 16.09 102.073 16.28C101.813 16.47 101.683 16.72 101.683 17.03C101.683 17.26 101.738 17.47 101.848 17.66C101.968 17.84 102.168 17.995 102.448 18.125C102.728 18.245 103.103 18.335 103.573 18.395C104.163 18.465 104.663 18.58 105.073 18.74C105.483 18.89 105.793 19.125 106.003 19.445C106.223 19.765 106.328 20.2 106.318 20.75C106.318 21.27 106.193 21.71 105.943 22.07C105.703 22.43 105.363 22.705 104.923 22.895C104.493 23.085 103.988 23.18 103.408 23.18Z" fill="black"/>
<path d="M94.5953 105.386L98.8914 89.5243C96.241 84.8828 94.8473 79.6156 94.8489 74.221C94.8569 57.3436 108.437 43.6127 125.127 43.6127C133.226 43.616 140.827 46.8044 146.544 52.5893C152.259 58.3758 155.407 66.0654 155.404 74.2452C155.397 91.1225 141.814 104.855 125.127 104.855H125.114C120.048 104.853 115.068 103.568 110.646 101.128L94.5953 105.386Z" fill="white"/>
<path d="M94.5953 106.192C94.3848 106.192 94.1807 106.108 94.0292 105.953C93.8298 105.749 93.7517 105.45 93.8267 105.174L98.035 89.634C95.4261 84.9474 94.0499 79.6253 94.0531 74.2226C94.0595 56.8985 107.999 42.8064 125.127 42.8064C133.435 42.8096 141.241 46.0819 147.108 52.02C152.975 57.9597 156.204 65.8525 156.201 74.2452C156.195 91.5677 142.254 105.661 125.127 105.661C120.042 105.66 115.01 104.391 110.545 101.989L94.7978 106.165C94.7308 106.184 94.6639 106.192 94.5953 106.192Z" fill="white"/>
<path d="M125.127 43.6127C133.226 43.616 140.827 46.8044 146.544 52.5893C152.259 58.3758 155.407 66.0654 155.404 74.2452C155.397 91.1225 141.814 104.855 125.127 104.855H125.114C120.048 104.853 115.068 103.568 110.646 101.128L94.5953 105.386L98.8914 89.5243C96.241 84.8828 94.8473 79.6156 94.8489 74.221C94.8569 57.3436 108.437 43.6127 125.127 43.6127ZM125.127 42C107.56 42 93.2622 56.4534 93.2542 74.221C93.2526 79.6511 94.6081 85.0022 97.1787 89.7388L93.0565 104.961C92.9066 105.518 93.0597 106.111 93.4615 106.521C93.7645 106.831 94.1743 107 94.5953 107C94.7309 107 94.8664 106.982 95.0004 106.947L110.448 102.85C114.958 105.218 120.013 106.468 125.114 106.469C142.694 106.469 156.992 92.0144 157 74.2468C157.003 65.6364 153.691 57.5404 147.674 51.4507C141.654 45.3593 133.647 42.0032 125.127 42Z" fill="#CFD8DC"/>
<path d="M142.927 56.2438C138.175 51.4346 131.858 48.7848 125.135 48.7832C111.255 48.7832 99.9662 60.195 99.9598 74.2226C99.9582 79.0302 101.288 83.7104 103.808 87.7632L104.407 88.726L101.864 98.1138L111.389 95.5882L112.309 96.1398C116.171 98.4589 120.601 99.6846 125.118 99.6862H125.127C138.998 99.6862 150.286 88.2728 150.291 74.2436C150.293 67.4459 147.679 61.053 142.927 56.2438Z" fill="#40C351"/>
<path fill-rule="evenodd" clip-rule="evenodd" d="M117.559 61.4255C116.993 60.1514 116.396 60.1256 115.856 60.103C115.414 60.0837 114.91 60.0853 114.406 60.0853C113.902 60.0853 113.082 60.2772 112.389 61.0433C111.695 61.8093 109.74 63.6591 109.74 67.4233C109.74 71.1874 112.451 74.8258 112.829 75.3354C113.207 75.845 118.063 83.8168 125.752 86.8843C132.142 89.4324 133.443 88.926 134.831 88.7986C136.218 88.6712 139.307 86.9488 139.937 85.1618C140.567 83.3749 140.567 81.8444 140.379 81.5251C140.189 81.2058 139.685 81.0155 138.929 80.6316C138.173 80.2478 134.453 78.398 133.759 78.1432C133.065 77.8884 132.561 77.761 132.056 78.527C131.552 79.2915 130.102 81.0155 129.661 81.5251C129.219 82.0363 128.777 82.1009 128.021 81.717C127.266 81.3332 124.829 80.5268 121.938 77.9206C119.689 75.8934 118.171 73.3888 117.729 72.6228C117.288 71.8583 117.682 71.4439 118.061 71.0616C118.401 70.7181 118.817 70.1682 119.196 69.7214C119.574 69.2747 119.7 68.9554 119.952 68.4458C120.204 67.9345 120.078 67.4878 119.889 67.1056C119.702 66.7217 118.232 62.9382 117.559 61.4255Z" fill="white"/>
</g>
<defs>
<clipPath id="clip0_3_15">
<rect width="182" height="130" fill="white"/>
</clipPath>
</defs>
</svg>
