<svg width="122" height="36" viewBox="0 0 122 36" fill="none" xmlns="http://www.w3.org/2000/svg">
<path d="M1.5 19.5C1.5 10.3873 8.8873 3 18 3H105C114.113 3 121.5 10.3873 121.5 19.5C121.5 28.6127 114.113 36 105 36H18C8.8873 36 1.5 28.6127 1.5 19.5Z" fill="#40C351"/>
<path d="M0.25 16.5C0.25 7.52537 7.52537 0.25 16.5 0.25H103.5C112.475 0.25 119.75 7.52537 119.75 16.5C119.75 25.4746 112.475 32.75 103.5 32.75H16.5C7.52537 32.75 0.25 25.4746 0.25 16.5Z" fill="white" stroke="black" stroke-width="0.5"/>
<path d="M22.67 21.18C21.66 21.18 20.785 20.955 20.045 20.505C19.305 20.045 18.735 19.41 18.335 18.6C17.935 17.78 17.735 16.83 17.735 15.75C17.735 14.67 17.935 13.725 18.335 12.915C18.735 12.095 19.305 11.46 20.045 11.01C20.795 10.55 21.67 10.32 22.67 10.32C23.85 10.32 24.805 10.6 25.535 11.16C26.275 11.71 26.75 12.49 26.96 13.5H25.805C25.645 12.82 25.305 12.275 24.785 11.865C24.265 11.445 23.56 11.235 22.67 11.235C21.9 11.235 21.225 11.415 20.645 11.775C20.065 12.135 19.615 12.655 19.295 13.335C18.975 14.005 18.815 14.81 18.815 15.75C18.815 16.69 18.975 17.5 19.295 18.18C19.615 18.85 20.065 19.365 20.645 19.725C21.225 20.085 21.9 20.265 22.67 20.265C23.56 20.265 24.26 20.06 24.77 19.65C25.29 19.24 25.635 18.7 25.805 18.03H26.96C26.74 19.02 26.265 19.795 25.535 20.355C24.815 20.905 23.86 21.18 22.67 21.18ZM28.7584 21V10.2H29.8084V14.79C30.0684 14.31 30.4284 13.935 30.8884 13.665C31.3484 13.395 31.8534 13.26 32.4034 13.26C32.9734 13.26 33.4684 13.375 33.8884 13.605C34.3184 13.835 34.6484 14.185 34.8784 14.655C35.1184 15.125 35.2384 15.725 35.2384 16.455V21H34.2034V16.575C34.2034 15.765 34.0334 15.165 33.6934 14.775C33.3634 14.375 32.8734 14.175 32.2234 14.175C31.7734 14.175 31.3634 14.285 30.9934 14.505C30.6334 14.725 30.3434 15.045 30.1234 15.465C29.9134 15.875 29.8084 16.385 29.8084 16.995V21H28.7584ZM39.6402 21.18C39.0302 21.18 38.5202 21.07 38.1102 20.85C37.7102 20.63 37.4102 20.345 37.2102 19.995C37.0202 19.645 36.9252 19.26 36.9252 18.84C36.9252 18.32 37.0552 17.88 37.3152 17.52C37.5852 17.16 37.9602 16.89 38.4402 16.71C38.9202 16.53 39.4802 16.44 40.1202 16.44H42.1602C42.1602 15.95 42.0852 15.535 41.9352 15.195C41.7852 14.855 41.5652 14.6 41.2752 14.43C40.9852 14.25 40.6202 14.16 40.1802 14.16C39.6702 14.16 39.2302 14.29 38.8602 14.55C38.4902 14.81 38.2602 15.19 38.1702 15.69H37.0752C37.1352 15.16 37.3152 14.715 37.6152 14.355C37.9252 13.995 38.3052 13.725 38.7552 13.545C39.2052 13.355 39.6802 13.26 40.1802 13.26C40.8802 13.26 41.4502 13.395 41.8902 13.665C42.3302 13.925 42.6602 14.285 42.8802 14.745C43.1002 15.205 43.2102 15.735 43.2102 16.335V21H42.2502L42.1902 19.62C42.1002 19.83 41.9752 20.03 41.8152 20.22C41.6652 20.41 41.4852 20.575 41.2752 20.715C41.0752 20.855 40.8402 20.965 40.5702 21.045C40.3002 21.135 39.9902 21.18 39.6402 21.18ZM39.7602 20.265C40.1302 20.265 40.4602 20.19 40.7502 20.04C41.0502 19.88 41.3052 19.675 41.5152 19.425C41.7252 19.175 41.8852 18.895 41.9952 18.585C42.1052 18.265 42.1602 17.935 42.1602 17.595V17.325H40.1952C39.6652 17.325 39.2402 17.39 38.9202 17.52C38.6002 17.65 38.3702 17.825 38.2302 18.045C38.0902 18.265 38.0202 18.52 38.0202 18.81C38.0202 19.1 38.0852 19.355 38.2152 19.575C38.3452 19.785 38.5402 19.955 38.8002 20.085C39.0702 20.205 39.3902 20.265 39.7602 20.265ZM47.8245 21C47.3945 21 47.0245 20.935 46.7145 20.805C46.4045 20.665 46.1645 20.44 45.9945 20.13C45.8345 19.81 45.7545 19.375 45.7545 18.825V14.34H44.4345V13.44H45.7545L45.9045 11.685H46.8045V13.455H49.0695V14.34H46.8045V18.825C46.8045 19.325 46.9045 19.665 47.1045 19.845C47.3045 20.015 47.6595 20.1 48.1695 20.1H48.9495V21H47.8245ZM56.3926 21L54.1726 13.44H55.2376L57.0376 19.905H56.8276L58.7776 13.44H59.9776L61.9276 19.905H61.7176L63.5176 13.44H64.5826L62.3626 21H61.2976L59.2726 14.235H59.4826L57.4576 21H56.3926ZM66.2033 21V13.44H67.2383V21H66.2033ZM66.7283 11.655C66.5183 11.655 66.3383 11.585 66.1883 11.445C66.0383 11.295 65.9633 11.11 65.9633 10.89C65.9633 10.66 66.0333 10.48 66.1733 10.35C66.3233 10.21 66.5033 10.14 66.7133 10.14C66.9233 10.14 67.1033 10.21 67.2533 10.35C67.4033 10.48 67.4783 10.66 67.4783 10.89C67.4783 11.11 67.4033 11.295 67.2533 11.445C67.1133 11.585 66.9383 11.655 66.7283 11.655ZM72.39 21C71.96 21 71.59 20.935 71.28 20.805C70.97 20.665 70.73 20.44 70.56 20.13C70.4 19.81 70.32 19.375 70.32 18.825V14.34H69V13.44H70.32L70.47 11.685H71.37V13.455H73.635V14.34H71.37V18.825C71.37 19.325 71.47 19.665 71.67 19.845C71.87 20.015 72.225 20.1 72.735 20.1H73.515V21H72.39ZM75.2671 21V10.2H76.3171V14.79C76.5771 14.31 76.9371 13.935 77.3971 13.665C77.8571 13.395 78.3621 13.26 78.9121 13.26C79.4821 13.26 79.9771 13.375 80.3971 13.605C80.8271 13.835 81.1571 14.185 81.3871 14.655C81.6271 15.125 81.7471 15.725 81.7471 16.455V21H80.7121V16.575C80.7121 15.765 80.5421 15.165 80.2021 14.775C79.8721 14.375 79.3821 14.175 78.7321 14.175C78.2821 14.175 77.8721 14.285 77.5021 14.505C77.1421 14.725 76.8521 15.045 76.6321 15.465C76.4221 15.875 76.3171 16.385 76.3171 16.995V21H75.2671ZM90.5948 21.18C90.0248 21.18 89.5198 21.07 89.0798 20.85C88.6498 20.62 88.3148 20.275 88.0748 19.815C87.8348 19.345 87.7148 18.745 87.7148 18.015V13.44H88.7648V17.895C88.7648 18.695 88.9398 19.29 89.2898 19.68C89.6498 20.07 90.1448 20.265 90.7748 20.265C91.2248 20.265 91.6248 20.16 91.9748 19.95C92.3348 19.74 92.6148 19.43 92.8148 19.02C93.0248 18.6 93.1298 18.09 93.1298 17.49V13.44H94.1798V21H93.2198L93.1598 19.65C92.9198 20.14 92.5698 20.52 92.1098 20.79C91.6598 21.05 91.1548 21.18 90.5948 21.18ZM99.092 21.18C98.492 21.18 97.962 21.08 97.502 20.88C97.052 20.68 96.687 20.395 96.407 20.025C96.137 19.645 95.972 19.195 95.912 18.675H96.992C97.052 18.965 97.167 19.23 97.337 19.47C97.517 19.71 97.757 19.905 98.057 20.055C98.357 20.195 98.712 20.265 99.122 20.265C99.502 20.265 99.812 20.21 100.052 20.1C100.302 19.98 100.487 19.825 100.607 19.635C100.737 19.435 100.802 19.215 100.802 18.975C100.802 18.645 100.722 18.39 100.562 18.21C100.412 18.02 100.192 17.88 99.902 17.79C99.612 17.7 99.262 17.615 98.852 17.535C98.512 17.475 98.187 17.395 97.877 17.295C97.567 17.195 97.287 17.065 97.037 16.905C96.797 16.745 96.607 16.545 96.467 16.305C96.327 16.055 96.257 15.765 96.257 15.435C96.257 15.005 96.362 14.63 96.572 14.31C96.792 13.98 97.102 13.725 97.502 13.545C97.902 13.355 98.372 13.26 98.912 13.26C99.682 13.26 100.312 13.455 100.802 13.845C101.292 14.225 101.577 14.785 101.657 15.525H100.607C100.567 15.115 100.397 14.79 100.097 14.55C99.797 14.31 99.392 14.19 98.882 14.19C98.382 14.19 97.997 14.295 97.727 14.505C97.467 14.705 97.337 14.98 97.337 15.33C97.337 15.55 97.407 15.74 97.547 15.9C97.687 16.06 97.892 16.2 98.162 16.32C98.442 16.43 98.782 16.525 99.182 16.605C99.662 16.695 100.102 16.815 100.502 16.965C100.912 17.105 101.242 17.325 101.492 17.625C101.752 17.915 101.882 18.33 101.882 18.87C101.892 19.32 101.782 19.72 101.552 20.07C101.322 20.42 100.997 20.695 100.577 20.895C100.157 21.085 99.662 21.18 99.092 21.18Z" fill="black"/>
</svg>
