<svg width="59" height="60" viewBox="0 0 59 60" fill="none" xmlns="http://www.w3.org/2000/svg">
<path d="M3.39594 56.5843L7.155 42.6752C4.83593 38.605 3.6164 33.986 3.6178 29.2553C3.62477 14.4552 15.5075 2.41426 30.1112 2.41426C37.1982 2.41709 43.8484 5.21307 48.8507 10.286C53.8517 15.3603 56.6061 22.1035 56.6033 29.2766C56.5977 44.0767 44.7121 56.1191 30.1112 56.1191H30.1001C25.6671 56.1176 21.3094 54.9905 17.4401 52.8507L3.39594 56.5843Z" fill="white"/>
<path d="M3.39592 57.2915C3.21173 57.2915 3.03313 57.2179 2.90057 57.0821C2.72615 56.9025 2.65778 56.6409 2.72336 56.3991L6.40568 42.7713C4.12289 38.6615 2.91871 33.9945 2.9215 29.2567C2.92708 14.0649 15.1238 1.70712 30.1112 1.70712C37.381 1.70995 44.2112 4.57947 49.3447 9.78674C54.4781 14.9954 57.3037 21.9168 57.3009 29.2765C57.2953 44.467 45.0972 56.8262 30.1112 56.8262C25.6615 56.8247 21.2591 55.7117 17.3522 53.6059L3.57312 57.2674C3.51452 57.2844 3.45592 57.2915 3.39592 57.2915Z" fill="white"/>
<path d="M30.1112 2.41425C37.1982 2.41708 43.8484 5.21306 48.8507 10.286C53.8516 15.3603 56.6061 22.1035 56.6033 29.2765C56.5977 44.0767 44.7121 56.119 30.1112 56.119H30.1001C25.667 56.1176 21.3094 54.9905 17.4401 52.8507L3.39592 56.5843L7.15498 42.6752C4.83592 38.6049 3.61638 33.986 3.61778 29.2553C3.62476 14.4552 15.5075 2.41425 30.1112 2.41425ZM30.1112 1C14.7401 1 2.22941 13.6745 2.22243 29.2553C2.22104 34.0171 3.40708 38.7096 5.65638 42.8633L2.04941 56.2124C1.91825 56.7003 2.0522 57.2207 2.40383 57.58C2.66894 57.8515 3.02755 58 3.39592 58C3.51452 58 3.63313 57.9844 3.75034 57.9533L17.2671 54.3611C21.2131 56.4373 25.6363 57.5333 30.1001 57.5347C45.4824 57.5347 57.993 44.8588 58 29.278C58.0028 21.7273 55.1047 14.6277 49.84 9.28751C44.5726 3.94589 37.5666 1.00283 30.1112 1Z" fill="#CFD8DC"/>
<path d="M45.6861 13.4907C41.5279 9.27338 36.001 6.94976 30.1182 6.94835C17.9731 6.94835 8.09543 16.9556 8.08985 29.2568C8.08845 33.4726 9.25217 37.5768 11.4568 41.1308L11.9815 41.9751L9.75589 50.2075L18.0903 47.9928L18.8954 48.4764C22.2749 50.5101 26.1512 51.585 30.1028 51.5864H30.1112C42.2479 51.5864 52.1256 41.5777 52.1298 29.2751C52.1312 23.3141 49.8442 17.708 45.6861 13.4907Z" fill="#40C351"/>
<path fill-rule="evenodd" clip-rule="evenodd" d="M23.4889 18.0347C22.9936 16.9174 22.4717 16.8948 21.9987 16.875C21.6122 16.858 21.1712 16.8594 20.7303 16.8594C20.2894 16.8594 19.5722 17.0277 18.9652 17.6995C18.3582 18.3713 16.6475 19.9934 16.6475 23.2943C16.6475 26.5951 19.0196 29.7857 19.3503 30.2326C19.681 30.6795 23.9298 37.6701 30.6582 40.36C36.2493 42.5946 37.3879 42.1505 38.6019 42.0388C39.8159 41.927 42.5186 40.4166 43.0698 38.8496C43.621 37.2826 43.621 35.9405 43.4563 35.6605C43.2903 35.3805 42.8493 35.2136 42.1879 34.877C41.5265 34.5404 38.2712 32.9182 37.6642 32.6948C37.0573 32.4713 36.6163 32.3596 36.174 33.0314C35.7331 33.7017 34.4647 35.2136 34.0782 35.6605C33.6917 36.1088 33.3052 36.1654 32.6438 35.8288C31.9824 35.4922 29.8503 34.7851 27.3205 32.4996C25.3531 30.7219 24.0247 28.5256 23.6382 27.8538C23.2517 27.1835 23.5963 26.82 23.9284 26.4848C24.2256 26.1836 24.5898 25.7013 24.9219 25.3096C25.2526 24.9178 25.3629 24.6378 25.5833 24.1909C25.8038 23.7426 25.6936 23.3508 25.5275 23.0157C25.3643 22.6791 24.0777 19.3612 23.4889 18.0347Z" fill="white"/>
</svg>
