<svg width="27" height="33" viewBox="0 0 27 33" fill="none" xmlns="http://www.w3.org/2000/svg">
<path d="M22.7808 23.3226L13.5 32.6033L4.21923 23.3226C-0.906408 18.1968 -0.906408 9.88661 4.21923 4.76097C9.34486 -0.36466 17.6551 -0.36466 22.7808 4.76097C27.9064 9.88661 27.9064 18.1968 22.7808 23.3226ZM13.5 19.8751C16.7216 19.8751 19.3333 17.2634 19.3333 14.0417C19.3333 10.8201 16.7216 8.20841 13.5 8.20841C10.2783 8.20841 7.66667 10.8201 7.66667 14.0417C7.66667 17.2634 10.2783 19.8751 13.5 19.8751ZM13.5 16.9584C11.8891 16.9584 10.5833 15.6526 10.5833 14.0417C10.5833 12.4309 11.8891 11.1251 13.5 11.1251C15.1109 11.1251 16.4167 12.4309 16.4167 14.0417C16.4167 15.6526 15.1109 16.9584 13.5 16.9584Z" fill="#F5BE32"/>
</svg>
