<svg width="27" height="27" viewBox="0 0 27 27" fill="none" xmlns="http://www.w3.org/2000/svg">
<path d="M26.625 19.9458V25.1026C26.625 25.8683 26.0331 26.5035 25.2695 26.5575C24.6316 26.6025 24.1113 26.625 23.7083 26.625C10.8216 26.625 0.375 16.1784 0.375 3.29167C0.375 2.88874 0.397531 2.36835 0.442594 1.73052C0.496581 0.966909 1.13179 0.375 1.8973 0.375H7.05431C7.42864 0.375 7.74215 0.658529 7.77973 1.03096C7.81348 1.36531 7.84485 1.63375 7.87385 1.83628C8.16884 3.89647 8.7714 5.8574 9.63352 7.67109C9.7719 7.9622 9.68166 8.31065 9.41936 8.498L6.27184 10.7464C8.18805 15.2224 11.7776 18.812 16.2536 20.7282L18.4979 17.5861C18.6876 17.3207 19.0402 17.2294 19.3348 17.3693C21.1484 18.2307 23.1091 18.8325 25.169 19.1268C25.3703 19.1557 25.637 19.1868 25.969 19.2203C26.3415 19.2579 26.625 19.5715 26.625 19.9458Z" fill="#F5BE32"/>
</svg>
