<svg width="35" height="35" viewBox="0 0 35 35" fill="none" xmlns="http://www.w3.org/2000/svg">
<path d="M17.4744 0.768799C26.739 0.768799 34.2489 8.27871 34.2489 17.5432C34.2489 26.8077 26.739 34.3176 17.4744 34.3176C14.6194 34.3217 11.8109 33.594 9.31704 32.2041L8.80542 31.9055L3.71942 33.4017C3.44265 33.4833 3.14963 33.4928 2.86815 33.4294C2.58666 33.366 2.32604 33.2317 2.11098 33.0394C1.89593 32.847 1.73357 32.6029 1.6393 32.3302C1.54502 32.0575 1.52196 31.7652 1.5723 31.4811L1.61591 31.2982L3.11219 26.2122C1.53045 23.5975 0.696133 20.5991 0.700026 17.5432C0.700026 8.27871 8.20993 0.768799 17.4744 0.768799ZM17.4744 4.12368C15.0717 4.12325 12.713 4.76791 10.6445 5.99036C8.57596 7.21281 6.87361 8.9682 5.71518 11.0732C4.55675 13.1782 3.98473 15.5557 4.05886 17.9573C4.133 20.3588 4.85056 22.6965 6.13661 24.726C6.46875 25.2494 6.61133 25.8935 6.49894 26.5326L6.43352 26.806L5.69377 29.3239L8.21161 28.5841C8.93794 28.3694 9.69279 28.5003 10.2916 28.881C12.0501 29.9945 14.0436 30.6837 16.1143 30.894C18.185 31.1044 20.2763 30.8302 22.2228 30.0931C24.1693 29.3561 25.9177 28.1763 27.3297 26.6472C28.7417 25.118 29.7787 23.2814 30.3587 21.2824C30.9386 19.2835 31.0456 17.177 30.6713 15.1296C30.2969 13.0821 29.4514 11.1498 28.2017 9.48542C26.9519 7.82102 25.3321 6.47014 23.4703 5.53958C21.6085 4.60902 19.5558 4.12428 17.4744 4.12368ZM12.6132 9.46466C12.7991 9.38505 13.0024 9.35481 13.2034 9.37685C13.4044 9.39889 13.5964 9.47247 13.7606 9.59046C14.606 10.2078 15.277 11.0364 15.854 11.8449L16.4026 12.6401L16.6592 13.0175C16.8078 13.2338 16.8808 13.4932 16.8669 13.7552C16.8529 14.0173 16.7528 14.2675 16.582 14.4668L16.4562 14.5943L14.9063 15.745C14.8325 15.7997 14.7807 15.8789 14.7601 15.9683C14.7395 16.0578 14.7515 16.1517 14.7939 16.2331C15.1462 16.8706 15.7685 17.8217 16.4831 18.5363C17.1993 19.2509 18.1941 19.9151 18.8751 20.306C19.0227 20.3898 19.2005 20.363 19.3213 20.254L19.385 20.1785L20.3932 18.6436C20.578 18.3967 20.8514 18.2311 21.1558 18.1817C21.4602 18.1323 21.7719 18.2028 22.0253 18.3786L22.9362 19.0143C23.842 19.6601 24.7126 20.3546 25.402 21.2353C25.5296 21.4008 25.6107 21.5973 25.6369 21.8046C25.6632 22.0119 25.6336 22.2224 25.5513 22.4145C24.8871 23.9645 23.2046 25.2846 21.4567 25.2209L21.19 25.2041L20.8696 25.1739L20.6884 25.1504L20.2892 25.0833C18.7392 24.7914 16.2549 23.9125 13.6801 21.3393C11.1069 18.7644 10.2279 16.2801 9.93602 14.7301L9.86892 14.3309L9.82699 13.982L9.80518 13.6885L9.79847 13.5626C9.73473 11.8114 11.0616 10.1289 12.6132 9.46466Z" fill="white"/>
</svg>
